<svg width="512" height="512" viewBox="0 0 512 512" fill="none" xmlns="http://www.w3.org/2000/svg">
  <rect width="512" height="512" rx="128" fill="#F4F8FF"/>
  <ellipse cx="256" cy="393" rx="146" ry="42" fill="#A9D8FF"/>
  <path d="M173 132c14-16 37-22 56-11 15 9 24 27 25 47-20-2-39-10-53-24-13-13-24-12-28-12Z" fill="#FF7A1A"/>
  <path d="M158 140c6-14 21-23 37-23 29 0 53 24 53 53 0 3 0 5-1 8-18-5-35-14-49-28-15-14-30-11-40-10Z" stroke="#D94C19" stroke-width="8" stroke-linecap="round" stroke-linejoin="round"/>
  <path d="M339 132c-14-16-37-22-56-11-15 9-24 27-25 47 20-2 39-10 53-24 13-13 24-12 28-12Z" fill="#FF7A1A"/>
  <path d="M354 140c-6-14-21-23-37-23-29 0-53 24-53 53 0 3 0 5 1 8 18-5 35-14 49-28 15-14 30-11 40-10Z" stroke="#D94C19" stroke-width="8" stroke-linecap="round" stroke-linejoin="round"/>
  <rect x="126" y="143" width="260" height="222" rx="48" fill="#46536E"/>
  <rect x="140" y="157" width="232" height="194" rx="38" fill="#727D90"/>
  <rect x="165" y="183" width="182" height="146" rx="24" fill="#FFFDF6"/>
  <circle cx="208" cy="244" r="23" fill="#1F2A44"/>
  <circle cx="302" cy="244" r="23" fill="#1F2A44"/>
  <circle cx="201" cy="236" r="8" fill="white"/>
  <circle cx="295" cy="236" r="8" fill="white"/>
  <path d="M228 277c9 12 19 18 28 18s19-6 28-18" stroke="#1F2A44" stroke-width="8" stroke-linecap="round" stroke-linejoin="round"/>
  <circle cx="187" cy="281" r="9" fill="#FFC9C9"/>
  <circle cx="323" cy="281" r="9" fill="#FFC9C9"/>
  <rect x="147" y="230" width="10" height="42" rx="5" fill="#2E3952"/>
  <rect x="355" y="211" width="14" height="74" rx="7" fill="#5E687D"/>
  <rect x="161" y="295" width="52" height="78" rx="24" fill="#5B677E"/>
  <rect x="299" y="295" width="52" height="78" rx="24" fill="#5B677E"/>
  <path d="M154 342c8-20 31-32 51-25l58 21-33 44-63-16c-16-4-22-14-13-24Z" fill="#FF6812"/>
  <path d="M358 342c-8-20-31-32-51-25l-58 21 33 44 63-16c16-4 22-14 13-24Z" fill="#FF6812"/>
  <path d="M183 307c32 0 55 11 73 27 18-16 41-27 73-27 15 0 34 3 50 9v84c-17-9-37-14-58-14-27 0-49 8-65 24-16-16-38-24-65-24-21 0-41 5-58 14v-84c16-6 35-9 50-9Z" fill="#FF6A16"/>
  <path d="M256 334v76" stroke="#D94C19" stroke-width="8" stroke-linecap="round"/>
  <path d="M140 399c34-15 69-23 109-23 43 0 66 11 77 23 11-12 34-23 77-23 34 0 63 6 94 18" stroke="#E85813" stroke-width="8" stroke-linecap="round" stroke-linejoin="round"/>
  <circle cx="110" cy="205" r="10" fill="#FFC44D"/>
  <path d="M110 188v12M110 210v12M93 205h12M115 205h12" stroke="#FFB11A" stroke-width="6" stroke-linecap="round"/>
  <circle cx="402" cy="211" r="10" fill="#FFC44D"/>
  <path d="M402 194v12M402 216v12M385 211h12M407 211h12" stroke="#FFB11A" stroke-width="6" stroke-linecap="round"/>
</svg>
